<?xml version="1.0" encoding="UTF-8" standalone="no"?>
<!-- Created with Inkscape (http://www.inkscape.org/) -->

<svg
   xmlns:dc="http://purl.org/dc/elements/1.1/"
   xmlns:cc="http://creativecommons.org/ns#"
   xmlns:rdf="http://www.w3.org/1999/02/22-rdf-syntax-ns#"
   xmlns:svg="http://www.w3.org/2000/svg"
   xmlns="http://www.w3.org/2000/svg"
   xmlns:sodipodi="http://sodipodi.sourceforge.net/DTD/sodipodi-0.dtd"
   xmlns:inkscape="http://www.inkscape.org/namespaces/inkscape"
   width="256"
   height="256"
   viewBox="0 0 67.733332 67.733332"
   version="1.1"
   id="svg8"
   inkscape:version="0.92.2 5c3e80d, 2017-08-06"
   sodipodi:docname="ChangeIcon.svg">
  <defs
     id="defs2" />
  <sodipodi:namedview
     id="base"
     pagecolor="#565656"
     bordercolor="#666666"
     borderopacity="1.0"
     inkscape:pageopacity="0"
     inkscape:pageshadow="2"
     inkscape:zoom="0.80566406"
     inkscape:cx="128"
     inkscape:cy="81.648485"
     inkscape:document-units="mm"
     inkscape:current-layer="layer1"
     showgrid="false"
     units="px"
     inkscape:window-width="1385"
     inkscape:window-height="855"
     inkscape:window-x="55"
     inkscape:window-y="1"
     inkscape:window-maximized="1" />
  <metadata
     id="metadata5">
    <rdf:RDF>
      <cc:Work
         rdf:about="">
        <dc:format>image/svg+xml</dc:format>
        <dc:type
           rdf:resource="http://purl.org/dc/dcmitype/StillImage" />
        <dc:title></dc:title>
      </cc:Work>
    </rdf:RDF>
  </metadata>
  <g
     inkscape:label="レイヤー 1"
     inkscape:groupmode="layer"
     id="layer1"
     transform="translate(0,-229.26665)">
    <g
       id="g880"
       transform="matrix(2.8222222,0,0,2.8222222,0,229.26665)"
       style="stroke-width:0.09375">
      <path
         id="path866"
         d="M 0,0 H 24 V 24 H 0 Z"
         inkscape:connector-curvature="0"
         style="fill:none;stroke-width:0.09375" />
      <path
         id="path868"
         d="m 19,8 -4,4 h 3 c 0,3.31 -2.69,6 -6,6 -1.01,0 -1.97,-0.25 -2.8,-0.7 L 7.74,18.76 C 8.97,19.54 10.43,20 12,20 c 4.42,0 8,-3.58 8,-8 h 3 z M 6,12 c 0,-3.31 2.69,-6 6,-6 1.01,0 1.97,0.25 2.8,0.7 L 16.26,5.24 C 15.03,4.46 13.57,4 12,4 7.58,4 4,7.58 4,12 H 1 l 4,4 4,-4 z"
         inkscape:connector-curvature="0"
         style="stroke-width:0.09375;fill:#ffffff;fill-opacity:1" />
    </g>
  </g>
</svg>
