<?xml version="1.0" encoding="UTF-8" standalone="no"?>
<!-- Created with Inkscape (http://www.inkscape.org/) -->

<svg
   xmlns:osb="http://www.openswatchbook.org/uri/2009/osb"
   xmlns:dc="http://purl.org/dc/elements/1.1/"
   xmlns:cc="http://creativecommons.org/ns#"
   xmlns:rdf="http://www.w3.org/1999/02/22-rdf-syntax-ns#"
   xmlns:svg="http://www.w3.org/2000/svg"
   xmlns="http://www.w3.org/2000/svg"
   xmlns:sodipodi="http://sodipodi.sourceforge.net/DTD/sodipodi-0.dtd"
   xmlns:inkscape="http://www.inkscape.org/namespaces/inkscape"
   width="256"
   height="256"
   viewBox="0 0 67.733332 67.733335"
   version="1.1"
   id="svg8"
   inkscape:version="0.92.2 5c3e80d, 2017-08-06"
   sodipodi:docname="SettingButton.svg">
  <defs
     id="defs2">
    <linearGradient
       id="linearGradient1058"
       osb:paint="solid">
      <stop
         style="stop-color:#000000;stop-opacity:1;"
         offset="0"
         id="stop1056" />
    </linearGradient>
  </defs>
  <sodipodi:namedview
     id="base"
     pagecolor="#5e5e5e"
     bordercolor="#666666"
     borderopacity="1.0"
     inkscape:pageopacity="0"
     inkscape:pageshadow="2"
     inkscape:zoom="1.8979278"
     inkscape:cx="80.088529"
     inkscape:cy="128.81836"
     inkscape:document-units="mm"
     inkscape:current-layer="layer1"
     showgrid="false"
     units="px"
     showguides="false"
     inkscape:window-width="1376"
     inkscape:window-height="855"
     inkscape:window-x="59"
     inkscape:window-y="0"
     inkscape:window-maximized="0" />
  <metadata
     id="metadata5">
    <rdf:RDF>
      <cc:Work
         rdf:about="">
        <dc:format>image/svg+xml</dc:format>
        <dc:type
           rdf:resource="http://purl.org/dc/dcmitype/StillImage" />
        <dc:title></dc:title>
      </cc:Work>
    </rdf:RDF>
  </metadata>
  <g
     inkscape:label="レイヤー 1"
     inkscape:groupmode="layer"
     id="layer1"
     transform="translate(0,-229.26665)">
    <g
       id="g1054"
       transform="matrix(2.8222222,0,0,2.8222222,0,229.26665)"
       style="fill:none;fill-opacity:1;fill-rule:evenodd;stroke:none;stroke-width:0.09375;stroke-opacity:1">
      <path
         id="path1040"
         d="M 0,0 H 24 V 24 H 0 Z"
         inkscape:connector-curvature="0"
         style="fill:none;fill-opacity:1;fill-rule:evenodd;stroke:none;stroke-width:0.09375;stroke-opacity:1" />
    </g>
    <path
       style="fill:none;stroke-width:0.26458332"
       inkscape:connector-curvature="0"
       d="m 0,229.26665 h 67.733333 v 67.73333 H 0 Z"
       id="path1066" />
    <path
       style="fill:#ffffff;fill-opacity:1;stroke:none;stroke-width:2.64583325;stroke-miterlimit:4;stroke-dasharray:none;stroke-opacity:1"
       inkscape:connector-curvature="0"
       d="m 58.738858,266.32263 c 0.133867,-1.04141 0.234271,-2.0828 0.234271,-3.18929 0,-1.10649 -0.100411,-2.14789 -0.234271,-3.1893 l 7.061599,-5.36973 c 0.63588,-0.48815 0.803218,-1.36684 0.40161,-2.0828 l -6.693461,-11.26016 c -0.301207,-0.5207 -0.870151,-0.81359 -1.472562,-0.81359 -0.200803,0 -0.401606,0.0326 -0.568943,0.0977 l -8.333356,3.25433 c -1.7403,-1.30175 -3.61447,-2.3757 -5.655975,-3.18929 l -1.271756,-8.62412 c -0.100411,-0.78105 -0.803218,-1.36684 -1.639899,-1.36684 H 27.179194 c -0.836682,0 -1.539493,0.58579 -1.639898,1.36684 l -1.271755,8.62412 c -2.041506,0.81359 -3.915676,1.92008 -5.655976,3.18929 l -8.333356,-3.25438 c -0.200804,-0.0651 -0.4016082,-0.0977 -0.6024107,-0.0977 -0.5689452,0 -1.137889,0.2929 -1.4390947,0.81359 l -6.6934592,11.26016 c -0.4350762,0.71597 -0.2342719,1.59465 0.4016071,2.08279 l 7.0616001,5.36975 c -0.1338672,1.04145 -0.2342704,2.11538 -0.2342704,3.18934 0,1.07395 0.1004115,2.14788 0.2342704,3.18929 l -7.0616001,5.36974 c -0.635879,0.48814 -0.8032156,1.36682 -0.4016071,2.08279 l 6.6934592,11.26017 c 0.3012057,0.52069 0.8701495,0.81359 1.4725613,0.81359 0.2008034,0 0.4016081,-0.0326 0.5689441,-0.0977 l 8.333356,-3.25437 c 1.7403,1.30176 3.61447,2.37569 5.655976,3.1893 l 1.271755,8.6241 c 0.100412,0.78106 0.803216,1.36685 1.639898,1.36685 h 13.386921 c 0.836681,0 1.539495,-0.58579 1.639899,-1.36685 l 1.271756,-8.6241 c 2.041505,-0.81361 3.915675,-1.92009 5.655975,-3.1893 l 8.333356,3.25437 c 0.200803,0.0651 0.401608,0.0977 0.602411,0.0977 0.568943,0 1.137887,-0.2929 1.439094,-0.81359 l 6.693461,-11.26017 c 0.401608,-0.71597 0.23427,-1.59465 -0.40161,-2.08279 z m -6.626526,-5.565 c 0.133868,1.00886 0.167336,1.69229 0.167336,2.37571 0,0.6834 -0.06692,1.39939 -0.167336,2.37569 l -0.468543,3.67746 2.978591,2.27808 3.61447,2.73367 -2.342712,3.9378 -4.250349,-1.65974 -3.480597,-1.36685 -3.012056,2.213 c -1.439094,1.04141 -2.811254,1.82245 -4.183416,2.37569 l -3.547533,1.39937 -0.535477,3.67746 -0.669345,4.39342 h -4.685422 l -0.635877,-4.39342 -0.535478,-3.67746 -3.547533,-1.39937 c -1.439095,-0.58579 -2.777786,-1.33428 -4.116479,-2.31061 l -3.045524,-2.27808 -3.547533,1.3994 -4.250348,1.65973 -2.3427094,-3.93781 3.6144684,-2.73368 2.978589,-2.27805 -0.468542,-3.67746 c -0.100411,-1.00885 -0.167337,-1.75736 -0.167337,-2.40824 0,-0.65088 0.06694,-1.39938 0.167337,-2.37571 l 0.468542,-3.67745 -2.978589,-2.27807 -3.6144684,-2.73367 2.3427094,-3.9378 4.250348,1.65974 3.480599,1.36683 3.012057,-2.21298 c 1.439094,-1.04139 2.811253,-1.82246 4.183413,-2.37569 l 3.547533,-1.39939 0.535476,-3.67746 0.669346,-4.39341 H 36.1819 l 0.635876,4.39341 0.535477,3.67746 3.547534,1.39939 c 1.439095,0.58579 2.777785,1.3343 4.116479,2.31059 l 3.045525,2.27808 3.547533,-1.3994 4.250347,-1.65972 2.342711,3.9378 -3.581002,2.76622 -2.978591,2.27807 z M 33.872654,250.1158 c -7.396272,0 -13.386918,5.82536 -13.386918,13.01754 0,7.19218 5.990646,13.01754 13.386918,13.01754 7.396273,0 13.386921,-5.82536 13.386921,-13.01754 0,-7.19218 -5.990648,-13.01754 -13.386921,-13.01754 z m 0,19.5263 c -3.681402,0 -6.69346,-2.92894 -6.69346,-6.50876 0,-3.57981 3.012058,-6.50876 6.69346,-6.50876 3.681404,0 6.693461,2.92895 6.693461,6.50876 0,3.57982 -3.012057,6.50876 -6.693461,6.50876 z"
       id="path1068" />
  </g>
</svg>
